<svg width="190" height="186" viewBox="0 0 190 186" fill="none" xmlns="http://www.w3.org/2000/svg">
<ellipse cx="94.5" cy="94.2346" rx="75.5" ry="74.2346" fill="#F68DFF" fill-opacity="0.36"/>
<ellipse cx="94.5852" cy="93" rx="94.5852" ry="93" fill="#F68DFF" fill-opacity="0.36"/>
<ellipse cx="96.5" cy="93.3974" rx="63.5" ry="61.3974" fill="#E019E4"/>
<path d="M57.5 104.333L47.7083 94.5418L50.45 91.7022L55.5417 96.7939V80.8335H59.4583V96.7939L64.55 91.7022L67.2917 94.5418L57.5 104.333ZM45.75 112.167C44.6729 112.167 43.7512 111.784 42.9848 111.017C42.2185 110.251 41.8346 109.329 41.8333 108.25V102.375H45.75V108.25H69.25V102.375H73.1667V108.25C73.1667 109.327 72.7835 110.25 72.0171 111.017C71.2508 111.785 70.3284 112.168 69.25 112.167H45.75Z" fill="white"/>
<path d="M102.845 110.567C99.8695 110.567 97.3104 109.937 95.1673 108.676C93.0368 107.403 91.3979 105.638 90.2507 103.382C89.1161 101.125 88.5488 98.5281 88.5488 95.5907C88.5488 92.6156 89.1224 90.006 90.2696 87.7621C91.4294 85.5055 93.0746 83.7469 95.2051 82.4862C97.3356 81.213 99.8695 80.5763 102.807 80.5763C105.341 80.5763 107.559 81.0365 109.463 81.9568C111.367 82.877 112.873 84.1692 113.983 85.8333C115.092 87.4973 115.703 89.4513 115.817 91.6953H108.215C108.001 90.2456 107.433 89.0795 106.513 88.197C105.605 87.3019 104.414 86.8544 102.939 86.8544C101.691 86.8544 100.601 87.1948 99.6678 87.8755C98.7475 88.5437 98.0289 89.5207 97.5121 90.8066C96.9952 92.0924 96.7368 93.6493 96.7368 95.4773C96.7368 97.3304 96.9889 98.9062 97.4932 100.205C98.01 101.503 98.7349 102.493 99.6678 103.174C100.601 103.854 101.691 104.195 102.939 104.195C103.859 104.195 104.685 104.006 105.416 103.627C106.16 103.249 106.772 102.701 107.251 101.982C107.742 101.251 108.064 100.375 108.215 99.3538H115.817C115.691 101.573 115.086 103.527 114.001 105.216C112.93 106.892 111.449 108.204 109.558 109.149C107.667 110.095 105.429 110.567 102.845 110.567ZM148.586 80.9545L138.431 110H129.354L119.2 80.9545H127.709L133.742 101.736H134.044L140.057 80.9545H148.586Z" fill="#F5F5F5"/>
</svg>
